<svg xmlns="http://www.w3.org/2000/svg" xmlns:xlink="http://www.w3.org/1999/xlink" width="210" zoomAndPan="magnify" viewBox="0 0 157.5 52.499999" height="60" preserveAspectRatio="xMidYMid meet" version="1.0"><defs><g/><clipPath id="0c2feb4af1"><path d="M 145 26 L 156.507812 26 L 156.507812 49 L 145 49 Z M 145 26 " clip-rule="nonzero"/></clipPath></defs><g fill="#000000" fill-opacity="1"><g transform="translate(5.712266, 23.719799)"><g><path d="M 6.421875 -12.203125 L 11.234375 -12.203125 L 11.234375 -5.265625 C 11.234375 -3.484375 10.800781 -2.117188 9.9375 -1.171875 C 9.070312 -0.222656 7.796875 0.25 6.109375 0.25 C 4.410156 0.25 3.128906 -0.222656 2.265625 -1.171875 C 1.398438 -2.117188 0.96875 -3.484375 0.96875 -5.265625 L 0.96875 -16.65625 C 0.96875 -18.425781 1.398438 -19.785156 2.265625 -20.734375 C 3.128906 -21.679688 4.410156 -22.15625 6.109375 -22.15625 C 7.796875 -22.15625 9.070312 -21.679688 9.9375 -20.734375 C 10.800781 -19.785156 11.234375 -18.425781 11.234375 -16.65625 L 11.234375 -14.515625 L 7.984375 -14.515625 L 7.984375 -16.875 C 7.984375 -17.664062 7.820312 -18.222656 7.5 -18.546875 C 7.175781 -18.867188 6.742188 -19.03125 6.203125 -19.03125 C 5.660156 -19.03125 5.222656 -18.867188 4.890625 -18.546875 C 4.566406 -18.222656 4.40625 -17.664062 4.40625 -16.875 L 4.40625 -5.03125 C 4.40625 -4.238281 4.566406 -3.6875 4.890625 -3.375 C 5.222656 -3.0625 5.660156 -2.90625 6.203125 -2.90625 C 6.742188 -2.90625 7.175781 -3.0625 7.5 -3.375 C 7.820312 -3.6875 7.984375 -4.238281 7.984375 -5.03125 L 7.984375 -9.078125 L 6.421875 -9.078125 Z M 6.421875 -12.203125 "/></g></g></g><g fill="#000000" fill-opacity="1"><g transform="translate(17.920016, 23.719799)"><g><path d="M 12.390625 0 L 8.921875 0 L 8.328125 -3.96875 L 4.09375 -3.96875 L 3.5 0 L 0.34375 0 L 3.84375 -21.90625 L 8.890625 -21.90625 Z M 4.53125 -6.953125 L 7.859375 -6.953125 L 6.203125 -18.03125 Z M 4.53125 -6.953125 "/></g></g></g><g fill="#000000" fill-opacity="1"><g transform="translate(30.659901, 23.719799)"><g><path d="M 1.25 -21.90625 L 4.6875 -21.90625 L 4.6875 -3.125 L 10.359375 -3.125 L 10.359375 0 L 1.25 0 Z M 1.25 -21.90625 "/></g></g></g><g fill="#000000" fill-opacity="1"><g transform="translate(41.33386, 23.719799)"><g><path d="M 12.390625 0 L 8.921875 0 L 8.328125 -3.96875 L 4.09375 -3.96875 L 3.5 0 L 0.34375 0 L 3.84375 -21.90625 L 8.890625 -21.90625 Z M 4.53125 -6.953125 L 7.859375 -6.953125 L 6.203125 -18.03125 Z M 4.53125 -6.953125 "/></g></g></g><g fill="#000000" fill-opacity="1"><g transform="translate(54.073746, 23.719799)"><g><path d="M 11.234375 -8.171875 L 11.234375 -5.265625 C 11.234375 -3.484375 10.800781 -2.117188 9.9375 -1.171875 C 9.070312 -0.222656 7.796875 0.25 6.109375 0.25 C 4.410156 0.25 3.128906 -0.222656 2.265625 -1.171875 C 1.398438 -2.117188 0.96875 -3.484375 0.96875 -5.265625 L 0.96875 -16.65625 C 0.96875 -18.425781 1.398438 -19.785156 2.265625 -20.734375 C 3.128906 -21.679688 4.410156 -22.15625 6.109375 -22.15625 C 7.796875 -22.15625 9.070312 -21.679688 9.9375 -20.734375 C 10.800781 -19.785156 11.234375 -18.425781 11.234375 -16.65625 L 11.234375 -14.515625 L 7.984375 -14.515625 L 7.984375 -16.875 C 7.984375 -17.664062 7.820312 -18.222656 7.5 -18.546875 C 7.175781 -18.867188 6.742188 -19.03125 6.203125 -19.03125 C 5.660156 -19.03125 5.222656 -18.867188 4.890625 -18.546875 C 4.566406 -18.222656 4.40625 -17.664062 4.40625 -16.875 L 4.40625 -5.03125 C 4.40625 -4.238281 4.566406 -3.6875 4.890625 -3.375 C 5.222656 -3.0625 5.660156 -2.90625 6.203125 -2.90625 C 6.742188 -2.90625 7.175781 -3.0625 7.5 -3.375 C 7.820312 -3.6875 7.984375 -4.238281 7.984375 -5.03125 L 7.984375 -8.171875 Z M 11.234375 -8.171875 "/></g></g></g><g fill="#000000" fill-opacity="1"><g transform="translate(66.156288, 23.719799)"><g><path d="M 0.3125 -21.90625 L 10.953125 -21.90625 L 10.953125 -18.78125 L 7.359375 -18.78125 L 7.359375 0 L 3.90625 0 L 3.90625 -18.78125 L 0.3125 -18.78125 Z M 0.3125 -21.90625 "/></g></g></g><g fill="#000000" fill-opacity="1"><g transform="translate(77.424986, 23.719799)"><g><path d="M 1.25 -21.90625 L 4.6875 -21.90625 L 4.6875 0 L 1.25 0 Z M 1.25 -21.90625 "/></g></g></g><g fill="#000000" fill-opacity="1"><g transform="translate(83.372352, 23.719799)"><g><path d="M 11.234375 -8.171875 L 11.234375 -5.265625 C 11.234375 -3.484375 10.800781 -2.117188 9.9375 -1.171875 C 9.070312 -0.222656 7.796875 0.25 6.109375 0.25 C 4.410156 0.25 3.128906 -0.222656 2.265625 -1.171875 C 1.398438 -2.117188 0.96875 -3.484375 0.96875 -5.265625 L 0.96875 -16.65625 C 0.96875 -18.425781 1.398438 -19.785156 2.265625 -20.734375 C 3.128906 -21.679688 4.410156 -22.15625 6.109375 -22.15625 C 7.796875 -22.15625 9.070312 -21.679688 9.9375 -20.734375 C 10.800781 -19.785156 11.234375 -18.425781 11.234375 -16.65625 L 11.234375 -14.515625 L 7.984375 -14.515625 L 7.984375 -16.875 C 7.984375 -17.664062 7.820312 -18.222656 7.5 -18.546875 C 7.175781 -18.867188 6.742188 -19.03125 6.203125 -19.03125 C 5.660156 -19.03125 5.222656 -18.867188 4.890625 -18.546875 C 4.566406 -18.222656 4.40625 -17.664062 4.40625 -16.875 L 4.40625 -5.03125 C 4.40625 -4.238281 4.566406 -3.6875 4.890625 -3.375 C 5.222656 -3.0625 5.660156 -2.90625 6.203125 -2.90625 C 6.742188 -2.90625 7.175781 -3.0625 7.5 -3.375 C 7.820312 -3.6875 7.984375 -4.238281 7.984375 -5.03125 L 7.984375 -8.171875 Z M 11.234375 -8.171875 "/></g></g></g><path fill="#760a21" d="M 128.390625 1.019531 C 126.824219 0.914062 120.394531 0 104.523438 10.097656 C 88.652344 20.199219 80.296875 37.199219 87.445312 46.351562 C 88.949219 48.277344 94.964844 52.1875 101.996094 47.074219 C 106.417969 43.859375 107.773438 36.832031 111.734375 27.414062 C 114.441406 20.980469 120.515625 8.894531 128.992188 3.425781 C 131.636719 2.101562 129.292969 1.082031 128.390625 1.019531 Z M 128.390625 1.019531 " fill-opacity="1" fill-rule="nonzero"/><path fill="#72414b" d="M 105.183594 19.546875 C 104.820312 18.105469 106.503906 13.714844 106.988281 12.515625 C 98.21875 16.503906 89.949219 28.335938 90 30.46875 C 90.007812 30.777344 90.191406 30.882812 90.574219 30.730469 C 97.925781 27.78125 102.671875 32.1875 103.929688 35.839844 C 104.0625 36.210938 104.222656 36.402344 104.394531 36.4375 C 104.625 36.488281 104.871094 36.234375 105.066406 35.679688 C 107.824219 27.753906 114.019531 13.289062 120.453125 7.765625 C 116.84375 9.507812 106.6875 17.023438 105.183594 19.546875 Z M 105.183594 19.546875 " fill-opacity="1" fill-rule="nonzero"/><path fill="#82646b" d="M 101.9375 18.644531 C 99.570312 19.773438 92.027344 27.082031 90.003906 30.46875 C 90.011719 30.777344 90.191406 30.882812 90.574219 30.730469 C 97.925781 27.78125 102.671875 32.1875 103.933594 35.839844 C 104.0625 36.210938 104.222656 36.402344 104.394531 36.4375 C 104.472656 33.265625 104.269531 26.066406 107.410156 20.691406 C 101.878906 25.742188 100.496094 25.617188 101.9375 18.644531 Z M 101.9375 18.644531 " fill-opacity="1" fill-rule="nonzero"/><path fill="#ffffff" d="M 94.421875 33.1875 C 90.4375 33.1875 87.207031 36.414062 87.207031 40.402344 C 87.207031 44.386719 90.4375 47.613281 94.421875 47.613281 C 98.40625 47.613281 101.636719 44.386719 101.636719 40.402344 C 101.636719 36.414062 98.40625 33.1875 94.421875 33.1875 Z M 94.421875 33.1875 " fill-opacity="1" fill-rule="nonzero"/><g fill="#000000" fill-opacity="1"><g transform="translate(107.233777, 48.349888)"><g><path d="M 6.328125 -21.90625 C 8.054688 -21.90625 9.34375 -21.445312 10.1875 -20.53125 C 11.03125 -19.613281 11.453125 -18.269531 11.453125 -16.5 L 11.453125 -13.640625 C 11.453125 -11.867188 11.03125 -10.523438 10.1875 -9.609375 C 9.34375 -8.691406 8.054688 -8.234375 6.328125 -8.234375 L 4.6875 -8.234375 L 4.6875 0 L 1.25 0 L 1.25 -21.90625 Z M 4.6875 -18.78125 L 4.6875 -11.359375 L 6.328125 -11.359375 C 6.867188 -11.359375 7.285156 -11.503906 7.578125 -11.796875 C 7.867188 -12.085938 8.015625 -12.628906 8.015625 -13.421875 L 8.015625 -16.71875 C 8.015625 -17.507812 7.867188 -18.050781 7.578125 -18.34375 C 7.285156 -18.632812 6.867188 -18.78125 6.328125 -18.78125 Z M 4.6875 -18.78125 "/></g></g></g><g fill="#000000" fill-opacity="1"><g transform="translate(119.034598, 48.349888)"><g><path d="M 4.40625 -5.03125 C 4.40625 -4.238281 4.566406 -3.679688 4.890625 -3.359375 C 5.222656 -3.035156 5.660156 -2.875 6.203125 -2.875 C 6.742188 -2.875 7.175781 -3.035156 7.5 -3.359375 C 7.820312 -3.679688 7.984375 -4.238281 7.984375 -5.03125 L 7.984375 -16.875 C 7.984375 -17.664062 7.820312 -18.222656 7.5 -18.546875 C 7.175781 -18.867188 6.742188 -19.03125 6.203125 -19.03125 C 5.660156 -19.03125 5.222656 -18.867188 4.890625 -18.546875 C 4.566406 -18.222656 4.40625 -17.664062 4.40625 -16.875 Z M 0.96875 -16.65625 C 0.96875 -18.425781 1.414062 -19.785156 2.3125 -20.734375 C 3.207031 -21.679688 4.503906 -22.15625 6.203125 -22.15625 C 7.890625 -22.15625 9.179688 -21.679688 10.078125 -20.734375 C 10.972656 -19.785156 11.421875 -18.425781 11.421875 -16.65625 L 11.421875 -5.265625 C 11.421875 -3.484375 10.972656 -2.117188 10.078125 -1.171875 C 9.179688 -0.222656 7.890625 0.25 6.203125 0.25 C 4.503906 0.25 3.207031 -0.222656 2.3125 -1.171875 C 1.414062 -2.117188 0.96875 -3.484375 0.96875 -5.265625 Z M 0.96875 -16.65625 "/></g></g></g><g fill="#000000" fill-opacity="1"><g transform="translate(131.430159, 48.349888)"><g><path d="M 4.3125 -15.875 L 4.3125 0 L 1.21875 0 L 1.21875 -21.90625 L 5.546875 -21.90625 L 9.078125 -8.796875 L 9.078125 -21.90625 L 12.140625 -21.90625 L 12.140625 0 L 8.609375 0 Z M 4.3125 -15.875 "/></g></g></g><g clip-path="url(#0c2feb4af1)"><g fill="#000000" fill-opacity="1"><g transform="translate(144.796079, 48.349888)"><g><path d="M 6.421875 -12.203125 L 11.234375 -12.203125 L 11.234375 -5.265625 C 11.234375 -3.484375 10.800781 -2.117188 9.9375 -1.171875 C 9.070312 -0.222656 7.796875 0.25 6.109375 0.25 C 4.410156 0.25 3.128906 -0.222656 2.265625 -1.171875 C 1.398438 -2.117188 0.96875 -3.484375 0.96875 -5.265625 L 0.96875 -16.65625 C 0.96875 -18.425781 1.398438 -19.785156 2.265625 -20.734375 C 3.128906 -21.679688 4.410156 -22.15625 6.109375 -22.15625 C 7.796875 -22.15625 9.070312 -21.679688 9.9375 -20.734375 C 10.800781 -19.785156 11.234375 -18.425781 11.234375 -16.65625 L 11.234375 -14.515625 L 7.984375 -14.515625 L 7.984375 -16.875 C 7.984375 -17.664062 7.820312 -18.222656 7.5 -18.546875 C 7.175781 -18.867188 6.742188 -19.03125 6.203125 -19.03125 C 5.660156 -19.03125 5.222656 -18.867188 4.890625 -18.546875 C 4.566406 -18.222656 4.40625 -17.664062 4.40625 -16.875 L 4.40625 -5.03125 C 4.40625 -4.238281 4.566406 -3.6875 4.890625 -3.375 C 5.222656 -3.0625 5.660156 -2.90625 6.203125 -2.90625 C 6.742188 -2.90625 7.175781 -3.0625 7.5 -3.375 C 7.820312 -3.6875 7.984375 -4.238281 7.984375 -5.03125 L 7.984375 -9.078125 L 6.421875 -9.078125 Z M 6.421875 -12.203125 "/></g></g></g></g></svg>