<svg xmlns="http://www.w3.org/2000/svg" xmlns:xlink="http://www.w3.org/1999/xlink" width="150" zoomAndPan="magnify" viewBox="0 0 375 374.999991" height="150" preserveAspectRatio="xMidYMid meet" version="1.0"><rect x="-37.5" width="450" fill="#ffffff" y="-37.499999" height="449.999989" fill-opacity="1"/><rect x="-37.5" width="450" fill="#ffffff" y="-37.499999" height="449.999989" fill-opacity="1"/><path fill="#d13333" d="M 340.726562 25.351562 C 330.609375 24.671875 289.007812 18.742188 186.320312 84.082031 C 83.644531 149.421875 29.589844 259.398438 75.855469 318.613281 C 85.582031 331.066406 124.480469 356.355469 169.984375 323.285156 C 198.597656 302.496094 207.363281 257.019531 232.988281 196.089844 C 250.492188 154.472656 289.773438 76.300781 344.621094 40.902344 C 361.734375 32.355469 346.558594 25.746094 340.726562 25.351562 Z M 340.726562 25.351562 " fill-opacity="1" fill-rule="nonzero"/><path fill="#f78c8c" d="M 190.59375 145.210938 C 188.261719 135.878906 199.152344 107.488281 202.261719 99.707031 C 145.539062 125.515625 92.03125 202.066406 92.375 215.847656 C 92.429688 217.847656 93.601562 218.535156 96.078125 217.550781 C 143.644531 198.460938 174.347656 226.976562 182.496094 250.601562 C 183.335938 253.015625 184.382812 254.25 185.484375 254.480469 C 186.992188 254.796875 188.585938 253.160156 189.835938 249.570312 C 207.691406 198.292969 247.757812 104.710938 289.378906 68.976562 C 266.042969 80.257812 200.324219 128.875 190.59375 145.210938 Z M 190.59375 145.210938 " fill-opacity="1" fill-rule="nonzero"/><path fill="#f4bdbd" d="M 169.597656 139.378906 C 154.289062 146.664062 105.488281 193.941406 92.386719 215.847656 C 92.4375 217.847656 93.609375 218.535156 96.085938 217.550781 C 143.652344 198.460938 174.355469 226.976562 182.507812 250.601562 C 183.34375 253.015625 184.390625 254.25 185.492188 254.480469 C 185.996094 233.964844 184.683594 187.367188 204.996094 152.605469 C 169.207031 185.269531 160.265625 184.484375 169.597656 139.378906 Z M 169.597656 139.378906 " fill-opacity="1" fill-rule="nonzero"/><path fill="#ffffff" d="M 120.980469 233.4375 C 95.207031 233.4375 74.304688 254.332031 74.304688 280.113281 C 74.304688 305.890625 95.207031 326.78125 120.980469 326.78125 C 146.753906 326.78125 167.648438 305.890625 167.648438 280.113281 C 167.648438 254.332031 146.753906 233.4375 120.980469 233.4375 Z M 120.980469 233.4375 " fill-opacity="1" fill-rule="nonzero"/></svg>