<svg id="svg" version="1.1" xmlns="http://www.w3.org/2000/svg" xmlns:xlink="http://www.w3.org/1999/xlink" width="400" height="400" viewBox="0, 0, 400,400"><g id="svgg"><path id="path0" d="M178.314 144.478 C 174.951 145.420,172.820 147.298,171.219 150.732 C 169.608 154.185,169.571 154.829,169.669 177.492 L 169.760 198.560 170.491 200.367 C 173.060 206.722,180.514 208.948,185.777 204.931 C 187.521 203.599,187.342 203.583,187.802 205.120 L 188.186 206.400 191.053 206.400 L 193.920 206.400 193.920 190.873 L 193.920 175.347 187.440 175.433 L 180.960 175.520 180.870 179.440 L 180.780 183.360 182.739 183.360 L 184.697 183.360 184.588 189.897 C 184.488 195.947,184.430 196.502,183.807 197.337 C 182.391 199.237,180.421 199.050,179.405 196.919 C 178.667 195.372,178.601 156.488,179.333 154.735 C 180.530 151.870,183.709 152.610,184.346 155.903 C 184.492 156.660,184.618 159.476,184.626 162.160 L 184.640 167.040 189.280 167.040 L 193.920 167.040 193.914 161.680 C 193.900 148.141,188.093 141.738,178.314 144.478 M294.494 144.665 C 291.023 145.765,288.429 149.000,287.210 153.747 C 286.491 156.544,286.489 194.019,287.207 197.064 C 288.736 203.550,292.691 206.874,298.880 206.874 C 307.290 206.874,311.025 201.738,311.035 190.160 L 311.040 184.960 306.720 184.960 L 302.400 184.960 302.393 189.840 C 302.383 196.452,301.360 198.557,298.507 197.835 C 296.125 197.231,296.016 196.269,296.008 175.616 C 295.998 153.801,296.117 152.960,299.200 152.960 C 301.660 152.960,302.396 154.855,302.398 161.200 L 302.400 165.760 306.720 165.760 L 311.040 165.760 311.035 160.720 C 311.023 147.560,304.707 141.429,294.494 144.665 M365.534 144.665 C 362.021 145.779,359.078 149.550,358.114 154.176 C 357.525 156.999,357.641 194.496,358.247 197.064 C 359.842 203.833,364.527 207.493,370.880 206.936 C 378.737 206.248,382.065 201.260,382.075 190.160 L 382.080 184.960 377.760 184.960 L 373.440 184.960 373.433 189.840 C 373.423 196.452,372.400 198.557,369.547 197.835 C 367.161 197.230,367.056 196.288,367.049 175.360 C 367.043 153.785,367.155 152.960,370.093 152.960 C 372.672 152.960,373.440 154.859,373.440 161.237 L 373.440 165.760 377.760 165.760 L 382.080 165.760 382.075 160.720 C 382.063 147.560,375.747 141.429,365.534 144.665 M206.895 145.040 C 206.714 145.617,197.760 205.247,197.760 205.874 C 197.760 206.337,198.296 206.400,202.204 206.400 L 206.649 206.400 206.826 205.360 C 206.923 204.788,207.319 201.908,207.706 198.960 L 208.410 193.600 212.614 193.600 L 216.818 193.600 217.555 199.440 C 217.960 202.652,218.362 205.532,218.447 205.840 C 218.610 206.426,227.520 206.740,227.520 206.160 C 227.520 205.805,218.577 146.547,218.368 145.520 L 218.189 144.640 212.605 144.640 C 208.417 144.640,206.989 144.740,206.895 145.040 M231.360 175.520 L 231.360 206.400 242.080 206.400 L 252.800 206.400 252.800 202.080 L 252.800 197.760 246.720 197.760 L 240.640 197.760 240.640 171.200 L 240.640 144.640 236.000 144.640 L 231.360 144.640 231.360 175.520 M262.721 145.040 C 262.722 145.536,253.817 204.686,253.591 205.680 L 253.428 206.400 258.074 206.400 C 261.832 206.400,262.720 206.315,262.720 205.954 C 262.720 205.709,263.079 202.865,263.519 199.634 C 263.958 196.403,264.318 193.724,264.319 193.680 C 264.328 193.072,272.594 193.700,272.741 194.320 C 272.835 194.716,273.237 197.596,273.636 200.720 L 274.360 206.400 278.965 206.400 L 283.571 206.400 283.389 205.520 C 283.169 204.457,274.240 145.311,274.240 144.917 C 274.240 144.765,271.648 144.640,268.480 144.640 C 264.085 144.640,262.720 144.735,262.721 145.040 M312.960 149.440 L 312.960 154.240 317.280 154.240 L 321.600 154.240 321.600 180.320 L 321.600 206.400 326.240 206.400 L 330.880 206.400 330.880 180.320 L 330.880 154.240 335.200 154.240 L 339.520 154.240 339.520 149.440 L 339.520 144.640 326.240 144.640 L 312.960 144.640 312.960 149.440 M342.720 175.520 L 342.720 206.400 347.360 206.400 L 352.000 206.400 352.000 175.520 L 352.000 144.640 347.360 144.640 L 342.720 144.640 342.720 175.520 M214.056 172.983 C 214.773 178.273,215.360 182.915,215.360 183.300 C 215.360 183.968,215.229 184.000,212.488 184.000 L 209.616 184.000 209.769 183.120 C 209.854 182.636,210.431 178.424,211.052 173.760 C 212.259 164.697,212.501 163.114,212.655 163.268 C 212.708 163.322,213.339 167.693,214.056 172.983 M270.069 173.760 C 270.780 179.128,271.361 183.628,271.361 183.760 C 271.360 183.892,270.051 184.000,268.452 184.000 L 265.544 184.000 265.731 182.800 C 265.834 182.140,266.428 177.712,267.051 172.960 C 268.142 164.633,268.427 162.993,268.665 163.680 C 268.726 163.856,269.358 168.392,270.069 173.760 M206.410 210.875 C 203.270 212.035,200.574 215.364,199.531 219.371 C 198.809 222.140,198.798 261.015,199.517 263.778 C 201.088 269.806,204.436 272.644,210.276 272.898 C 216.719 273.177,220.422 270.654,222.514 264.559 C 223.510 261.657,223.593 222.233,222.609 219.044 C 220.397 211.874,213.340 208.315,206.410 210.875 M269.249 210.825 C 266.052 211.930,263.667 214.609,262.289 218.641 C 261.481 221.008,261.032 259.078,261.762 263.360 C 263.259 272.134,272.046 276.115,278.128 270.775 L 279.264 269.778 279.683 271.049 L 280.102 272.320 282.931 272.320 L 285.760 272.320 285.760 256.960 L 285.760 241.600 279.360 241.600 L 272.960 241.600 272.960 245.600 L 272.960 249.600 274.743 249.600 L 276.526 249.600 276.423 256.295 C 276.302 264.185,275.647 265.722,272.858 264.662 C 270.844 263.896,270.880 264.313,270.880 241.920 C 270.880 219.640,270.865 219.817,272.773 219.338 C 275.731 218.596,276.297 219.795,276.420 227.062 L 276.520 232.960 281.140 232.960 L 285.760 232.960 285.756 227.120 C 285.751 219.176,285.008 216.544,281.868 213.342 C 278.939 210.357,273.653 209.302,269.249 210.825 M170.203 210.960 C 170.183 211.004,170.109 224.828,170.040 241.680 L 169.913 272.320 174.717 272.320 L 179.520 272.320 179.520 260.175 L 179.520 248.029 180.720 247.835 C 190.986 246.177,195.027 240.930,195.009 229.280 C 194.994 218.884,191.619 213.316,184.155 211.372 C 182.553 210.955,170.372 210.595,170.203 210.960 M229.120 241.600 L 229.120 272.320 233.440 272.320 L 237.760 272.320 237.780 254.960 L 237.799 237.600 242.372 254.240 C 244.887 263.392,247.048 271.204,247.174 271.600 C 247.396 272.298,247.531 272.320,251.542 272.320 L 255.680 272.320 255.680 241.600 L 255.680 210.880 251.363 210.880 L 247.046 210.880 246.963 228.120 L 246.880 245.361 242.577 229.640 C 240.210 220.994,238.076 213.236,237.833 212.400 L 237.392 210.880 233.256 210.880 L 229.120 210.880 229.120 241.600 M212.800 219.914 C 213.898 221.093,213.920 221.517,213.920 241.920 C 213.920 260.136,213.878 261.677,213.354 262.635 C 212.318 264.531,209.885 264.402,208.880 262.397 C 208.190 261.018,208.003 222.331,208.681 221.019 C 209.700 219.046,211.533 218.554,212.800 219.914 M183.040 221.061 C 185.145 222.074,185.761 223.977,185.753 229.440 C 185.743 236.150,184.876 237.753,180.966 238.289 L 179.520 238.487 179.520 229.288 L 179.520 220.089 180.720 220.306 C 181.380 220.425,182.424 220.765,183.040 221.061 " stroke="none" fill="#040404" fill-rule="evenodd"></path><path id="path1" d="M148.160 93.985 C 124.716 95.831,97.726 113.926,76.658 141.920 C 59.127 165.215,42.006 204.653,38.385 230.080 C 35.700 248.941,41.258 262.166,46.973 250.513 C 55.094 233.952,73.946 215.225,99.360 198.473 C 111.537 190.446,122.557 184.381,148.000 171.701 C 155.920 167.754,164.020 163.496,166.000 162.240 L 169.600 159.956 169.600 158.102 C 169.600 150.021,173.998 144.626,181.024 144.087 L 183.329 143.910 184.427 141.155 C 189.883 127.473,187.498 113.391,178.023 103.347 C 171.871 96.825,159.870 93.063,148.160 93.985 M162.116 101.747 C 182.285 106.582,187.220 133.135,170.081 144.598 C 156.915 153.404,139.284 147.369,134.215 132.320 C 128.419 115.116,144.479 97.518,162.116 101.747 M123.736 114.112 C 123.845 114.393,123.622 115.979,123.241 117.635 C 118.947 136.331,127.163 152.202,143.757 157.264 C 148.194 158.617,148.054 158.910,142.675 159.537 C 122.083 161.939,108.961 165.778,98.739 172.389 C 97.300 173.320,96.680 173.596,96.979 173.171 C 110.413 154.098,109.318 150.537,91.600 155.673 C 87.626 156.825,87.648 156.835,88.843 154.469 C 95.096 142.088,122.368 110.546,123.736 114.112 " stroke="none" fill="#f38282" fill-rule="evenodd"></path><path id="path2" d="M152.977 101.588 C 134.891 105.021,127.113 125.444,138.414 139.824 C 148.705 152.919,169.645 150.880,177.700 136.000 C 186.881 119.040,171.779 98.019,152.977 101.588 M157.920 166.777 C 157.040 167.298,151.525 170.088,145.664 172.976 L 135.008 178.227 135.210 179.433 C 136.264 185.732,139.415 189.941,144.611 191.989 C 157.827 197.198,170.313 183.747,164.040 171.058 C 163.082 169.120,160.254 165.689,159.701 165.794 C 159.601 165.813,158.800 166.255,157.920 166.777 " stroke="none" fill="#f7f6e9" fill-rule="evenodd"></path><path id="path3" d="M103.429 220.144 C 96.339 223.802,90.467 226.867,90.379 226.954 C 90.258 227.075,123.577 291.932,124.015 292.429 C 124.430 292.899,128.937 290.010,129.769 288.741 C 131.270 286.451,130.947 285.811,122.237 273.796 C 106.988 252.760,101.403 241.157,103.183 234.207 C 103.938 231.260,108.247 224.347,112.351 219.498 C 113.959 217.598,116.602 213.776,116.428 213.602 C 116.369 213.542,110.519 216.486,103.429 220.144 M69.699 237.549 C 62.889 241.097,57.213 244.108,57.085 244.240 C 56.958 244.372,60.297 244.480,64.507 244.481 C 80.796 244.483,83.392 245.398,88.313 252.867 C 93.172 260.243,96.053 266.822,101.617 283.250 C 106.730 298.345,107.023 298.880,110.206 298.880 C 111.845 298.880,116.160 297.193,116.160 296.552 C 116.160 296.083,82.499 231.035,82.274 231.069 C 82.167 231.085,76.508 234.001,69.699 237.549 " stroke="none" fill="#ccac9c" fill-rule="evenodd"></path><path id="path4" d="M119.509 116.424 C 109.125 125.686,88.000 152.498,88.000 156.415 C 88.000 156.567,89.644 156.219,91.654 155.641 C 104.879 151.839,108.600 153.446,104.685 161.268 C 103.401 163.832,102.297 165.577,98.656 170.800 L 96.507 173.882 97.934 172.913 C 107.978 166.085,121.772 161.936,142.434 159.528 C 148.087 158.869,148.228 158.628,143.759 157.264 C 127.806 152.398,119.049 136.500,122.881 119.360 C 124.361 112.740,123.996 112.422,119.509 116.424 M52.160 127.820 C 41.350 129.388,33.117 133.409,24.929 141.119 C 24.395 141.622,21.650 144.722,20.768 145.819 C 20.321 146.374,18.661 148.782,16.935 151.380 C 14.860 154.502,11.779 162.153,10.411 167.583 C 3.666 194.353,14.706 225.381,35.360 237.699 L 37.600 239.034 37.816 235.597 C 39.530 208.327,59.637 162.542,81.931 135.147 L 83.537 133.174 81.688 132.318 C 73.391 128.472,60.844 126.561,52.160 127.820 M155.120 148.711 C 155.692 148.782,156.628 148.782,157.200 148.711 C 157.772 148.641,157.304 148.582,156.160 148.582 C 155.016 148.582,154.548 148.641,155.120 148.711 M121.440 185.232 C 120.912 185.552,119.112 186.583,117.440 187.524 C 87.885 204.153,64.872 223.150,52.707 240.960 L 50.849 243.680 53.795 244.078 C 55.525 244.311,56.885 244.358,57.090 244.191 C 58.563 242.996,82.391 231.086,82.613 231.434 C 82.755 231.657,90.383 246.384,99.564 264.160 C 108.745 281.936,116.296 296.530,116.346 296.591 C 116.395 296.652,118.168 295.806,120.285 294.712 L 124.136 292.721 123.703 291.881 C 123.465 291.418,115.838 276.665,106.755 259.094 C 97.672 241.524,90.240 227.103,90.240 227.046 C 90.240 226.990,96.218 223.869,103.525 220.112 L 116.810 213.280 118.374 210.080 C 122.064 202.531,124.167 191.654,123.068 185.798 C 122.819 184.471,122.742 184.444,121.440 185.232 " stroke="none" fill="#f3bcbb" fill-rule="evenodd"></path></g></svg>